<svg width="43" height="58" viewBox="0 0 43 58" fill="none" xmlns="http://www.w3.org/2000/svg">
<path d="M21.5 36.7255C19.0164 36.7255 16.9053 35.8562 15.1667 34.1177C13.4281 32.3791 12.5589 30.268 12.5589 27.7843V9.90199C12.5589 7.41833 13.4281 5.30722 15.1667 3.56866C16.9053 1.8301 19.0164 0.960815 21.5 0.960815C23.9837 0.960815 26.0948 1.8301 27.8334 3.56866C29.5719 5.30722 30.4412 7.41833 30.4412 9.90199V27.7843C30.4412 30.268 29.5719 32.3791 27.8334 34.1177C26.0948 35.8562 23.9837 36.7255 21.5 36.7255ZM18.5196 54.6079V48.4236C13.9497 47.7778 10.0384 45.8406 6.78584 42.6118C3.53324 39.383 1.55823 35.4589 0.860817 30.8392C0.76147 29.9948 0.985001 29.2745 1.53141 28.6785C2.07781 28.0824 2.77324 27.7843 3.61768 27.7843C4.46212 27.7843 5.17046 28.0705 5.7427 28.6427C6.31493 29.2149 6.69941 29.9223 6.89611 30.7647C7.59154 34.2419 9.31818 37.0981 12.076 39.3334C14.8339 41.5687 17.9752 42.6863 21.5 42.6863C25.0765 42.6863 28.2308 41.5567 30.9628 39.2976C33.6948 37.0385 35.4085 34.1942 36.104 30.7647C36.3026 29.9203 36.6881 29.2129 37.2603 28.6427C37.8326 28.0724 38.5399 27.7863 39.3824 27.7843C40.2248 27.7824 40.9203 28.0804 41.4687 28.6785C42.0171 29.2765 42.2406 29.9968 42.1392 30.8392C41.4438 35.3595 39.4817 39.2589 36.253 42.5373C33.0242 45.8157 29.1 47.7778 24.4804 48.4236V54.6079C24.4804 55.4523 24.1943 56.1607 23.6221 56.7329C23.0498 57.3051 22.3425 57.5902 21.5 57.5883C20.6576 57.5863 19.9502 57.3002 19.378 56.7299C18.8058 56.1597 18.5196 55.4523 18.5196 54.6079Z" fill="black"/>
</svg>
